<svg xmlns="http://www.w3.org/2000/svg" version="1.1" xmlns:xlink="http://www.w3.org/1999/xlink" xmlns:svgjs="http://svgjs.dev/svgjs" width="100%" height="100%" viewBox="0 0 1000 600"><rect width="1000" height="600" x="0" y="0" fill="#eb2188"/><g><circle r="166.66666666666666" cx="421.0165659586588" cy="443.23876385509254" fill="#080a52" transform="matrix(0.4914490833842145,0,0,0.49144908338421445,0,82.17072248882808)"/><path d="M467.09510001065894 477.1697142421361L467.09510001065894 477.1697142421361Q467.09510001065894 496.58314764925393 453.0175225692401 507.39677064356954Q438.9115629152379 518.2387758504686 414.98535770734264 518.2387758504686L414.98535770734264 518.2387758504686Q402.7242418712682 518.2387758504686 392.3079698531217 516.3939320325408Q381.8916978349751 514.549088214613 374.9380557520162 511.2851337675098L374.9380557520162 511.2851337675098L374.9380557520162 493.71654417831985Q382.2890488111442 496.980498625423 393.2445828683774 499.64842660827253Q404.17173471302704 502.28797237853854 415.8084418722643 502.28797237853854L415.8084418722643 502.28797237853854Q432.1565963203635 502.28797237853854 440.44420239474715 495.95873897241677Q448.7034262565473 489.62950556629505 448.7034262565473 478.7875003593959L448.7034262565473 478.7875003593959Q448.7034262565473 471.6351827883525 445.6381472975287 466.7534422239895Q442.5728683385101 461.8433194470431 435.13672864163163 457.6427519846842Q427.6722067321696 453.4705667349089 414.38933124308903 448.75911944604695L414.38933124308903 448.75911944604695Q395.79898200089286 442.00415285117265 386.29094078541846 432.21228950986324Q376.7828995699441 422.3920439559703 376.7828995699441 405.4478630436174L376.7828995699441 405.4478630436174Q376.7828995699441 393.78277367179663 382.7147819998968 385.5235498099965Q388.64666442984947 377.23594373561286 399.1480830857465 372.75155414741903Q409.6778839542271 368.2387823466416 423.3864926320603 368.2387823466416L423.3864926320603 368.2387823466416Q435.4205507674667 368.2387823466416 445.43947180944417 370.48097714073856Q455.4583928514216 372.75155414741903 463.63247007547125 376.41285957069124L463.63247007547125 376.41285957069124L457.8992631336031 392.1649875545368Q450.3495945863906 388.87265089485015 441.46596204775335 386.63045610075324Q432.5823295091161 384.3882613066563 422.9607594433077 384.3882613066563L422.9607594433077 384.3882613066563Q409.28053297805803 384.3882613066563 402.32689089509915 390.2066148862749Q395.3732488121403 396.0249684658936 395.3732488121403 405.64653853170194L395.3732488121403 405.64653853170194Q395.3732488121403 412.9975315908299 398.4385277711589 417.9076543677764Q401.5038067301775 422.81777714472287 408.45744881313635 426.6777580560796Q415.41109089609523 430.5661211800199 427.2464735434171 435.07889298079726L427.2464735434171 435.07889298079726Q440.1319980563286 439.76195805707573 449.01563059496584 445.1829606605253Q457.8992631336031 450.60396326397483 462.497181572131 458.1536318111873Q467.09510001065894 465.7316825709833 467.09510001065894 477.1697142421361Z " fill="#eb2188" transform="matrix(0.4914490833842145,0,0,0.49144908338421445,0,82.17072248882808)"/><path d="M719.4366320178433 404.6247788786958L719.4366320178433 404.6247788786958Q733.5425916718457 404.6247788786958 743.6750415641571 410.755336796733Q753.7791092438852 416.8858947147702 759.2001118473347 428.0117220475044Q764.6211144507843 439.16593159282206 764.6211144507843 454.0665931991625L764.6211144507843 454.0665931991625L764.6211144507843 464.9085984060616L689.6069265925789 464.9085984060616Q690.0326597813316 483.49894764825785 699.1149678080533 493.2056643518167Q708.1972758347752 502.91238105537565 724.5454302828743 502.91238105537565L724.5454302828743 502.91238105537565Q734.9900845136044 502.91238105537565 743.05063288732 500.9823905996973Q751.1111812610357 499.0240179314354 759.7109916738377 495.36271250816316L759.7109916738377 495.36271250816316L759.7109916738377 511.0864582794253Q751.3382389617036 514.776145915281 743.164161737654 516.5074608828749Q734.9900845136044 518.2387758504686 723.7507283305363 518.2387758504686L723.7507283305363 518.2387758504686Q708.1972758347752 518.2387758504686 696.2483643371193 511.9095424443469Q684.2994528394634 505.5803090382252 677.6580150949231 493.0069888637322Q671.0165773503828 480.4336686892392 671.0165773503828 462.2406704232121L671.0165773503828 462.2406704232121Q671.0165773503828 444.2747298578531 677.033606418086 431.38920534494156Q683.0790176983727 418.50368083203 694.0061695430223 411.5784209616546Q704.933321387672 404.6247788786958 719.4366320178433 404.6247788786958ZM719.2379565297588 419.3267649969517L719.2379565297588 419.3267649969517Q706.3808142294308 419.3267649969517 698.9162923199688 427.6143710713353Q691.4517704105069 435.87359493313545 690.0326597813316 450.60396326397483L690.0326597813316 450.60396326397483L745.8037075079201 450.60396326397483Q745.6050320198356 436.6966790980571 739.2757986137137 428.0117220475044Q732.946565207592 419.3267649969517 719.2379565297588 419.3267649969517ZM843.4952832203463 404.6247788786958L843.4952832203463 404.6247788786958Q846.5605621793649 404.6247788786958 850.1367209648866 404.93698321711435Q853.7128797504083 405.2208053429494 856.3524255206744 405.8452140197865L856.3524255206744 405.8452140197865L854.1102307265774 422.3920439559703Q851.4706849563114 421.79601749171667 848.2918771469588 421.3702843029641Q845.1130693376061 420.972933326795 842.2748480792555 420.972933326795L842.2748480792555 420.972933326795Q833.8737131545379 420.972933326795 826.5227200954099 425.5708517653229Q819.171727036282 430.16877020385084 814.7724840858386 438.4279940656509Q810.3732411353952 446.71560014003455 810.3732411353952 457.75628083501823L810.3732411353952 457.75628083501823L810.3732411353952 516.1952565444562L792.4073005700362 516.1952565444562L792.4073005700362 406.6682981847082L807.1092866882922 406.6682981847082L809.1528059943046 426.6777580560796L809.9758901592262 426.6777580560796Q815.2833639123418 417.7089788796918 823.6561166244759 411.1526877729021Q832.0572515491936 404.6247788786958 843.4952832203463 404.6247788786958ZM921.5463678249868 516.1952565444562L900.9124992767781 516.1952565444562L859.417704479693 406.6682981847082L878.6324623987263 406.6682981847082L901.9342589297843 471.2378318121834Q903.5804272596276 475.7222214003773 905.3968888649721 481.2567528541609Q907.2417326828999 486.76290209536097 908.6892255246586 491.78655372264143Q910.1083361538339 496.7818231373384 910.7327448306711 500.2444530725261L910.7327448306711 500.2444530725261L911.5274467830092 500.2444530725261Q912.3505309479309 496.7818231373384 913.8831704274402 491.67302487230745Q915.4158099069494 486.5642266072764 917.3741825752114 481.05807736607636Q919.3041730308897 475.5235459122928 920.723283660065 471.2378318121834L920.723283660065 471.2378318121834L944.025080191123 406.6682981847082L963.2398381101565 406.6682981847082L921.5463678249868 516.1952565444562ZM1062.5491999398423 516.1952565444562L1047.4214806328341 516.1952565444562L999.3987769415426 388.27662443059654L998.6040749892044 388.27662443059654Q999.2001014534579 394.6058578367183 999.6258346422106 405.3343341932834Q1000.0231856183797 416.0628105498485 1000.0231856183797 427.69951770908585L1000.0231856183797 427.69951770908585L1000.0231856183797 516.1952565444562L983.0506224934434 516.1952565444562L983.0506224934434 370.28230165265404L1010.2407821484417 370.28230165265404L1055.1982068807147 489.82818105437957L1056.0212910456362 489.82818105437957L1101.8017999428307 370.28230165265404L1128.764901897161 370.28230165265404L1128.764901897161 516.1952565444562L1110.5719036311339 516.1952565444562L1110.5719036311339 426.4790825679951Q1110.5719036311339 415.864135061764 1111.082783457637 405.4478630436174Q1111.5936632841403 395.00320881288735 1112.0193964728928 388.4752999186811L1112.0193964728928 388.4752999186811L1111.196312307971 388.4752999186811L1062.5491999398423 516.1952565444562ZM1261.196305811798 461.2189107702059L1261.196305811798 461.2189107702059Q1261.196305811798 488.4090704252043 1247.4025504962144 503.30973203154474Q1233.6087951806308 518.2387758504686 1210.108323161488 518.2387758504686L1210.108323161488 518.2387758504686Q1195.5766303187331 518.2387758504686 1184.2521274979144 511.5973381059284Q1172.899242464512 504.95590036138805 1166.371333570306 492.1839046988105Q1159.815042463516 479.411909036233 1159.815042463516 461.2189107702059L1159.815042463516 461.2189107702059Q1159.815042463516 434.05713332779106 1173.5236511413493 419.3267649969517Q1187.2038776065992 404.6247788786958 1210.7043496257415 404.6247788786958L1210.7043496257415 404.6247788786958Q1225.6333934446657 404.6247788786958 1236.9578962654846 411.26621662323606Q1248.3107812988867 417.9076543677764 1254.7535435553423 430.4809745422694Q1261.196305811798 443.02591250417885 1261.196305811798 461.2189107702059ZM1178.4337739182956 461.2189107702059L1178.4337739182956 461.2189107702059Q1178.4337739182956 480.6323441773238 1186.0969713158424 491.985229210726Q1193.7601687133888 503.30973203154474 1210.505674137657 503.30973203154474L1210.505674137657 503.30973203154474Q1227.0525040738407 503.30973203154474 1234.8292303217215 491.985229210726Q1242.5775743570184 480.6323441773238 1242.5775743570184 461.2189107702059L1242.5775743570184 461.2189107702059Q1242.5775743570184 441.80547736308813 1234.8292303217215 430.7647966681044Q1227.0525040738407 419.75249818570427 1210.3069986495725 419.75249818570427L1210.3069986495725 419.75249818570427Q1193.5331110127208 419.75249818570427 1185.9834424655082 430.7647966681044Q1178.4337739182956 441.80547736308813 1178.4337739182956 461.2189107702059ZM1342.312669375457 404.6247788786958L1342.312669375457 404.6247788786958Q1361.9247782706593 404.6247788786958 1371.943699312637 414.13282009417014Q1381.9626203546145 423.61247909706105 1381.9626203546145 444.87075632210673L1381.9626203546145 444.87075632210673L1381.9626203546145 516.1952565444562L1364.1669730647563 516.1952565444562L1364.1669730647563 446.09119146319745Q1364.1669730647563 419.75249818570427 1339.6447413926076 419.75249818570427L1339.6447413926076 419.75249818570427Q1321.4801253391638 419.75249818570427 1314.5264832562052 429.97009471576627Q1307.5728411732462 440.1876912458283 1307.5728411732462 459.3740669522781L1307.5728411732462 459.3740669522781L1307.5728411732462 516.1952565444562L1289.5785183953035 516.1952565444562L1289.5785183953035 406.6682981847082L1304.1102112380586 406.6682981847082L1306.7497570083247 421.5689597910486L1307.7715166613307 421.5689597910486Q1313.0789904144463 412.9975315908299 1322.5018849921703 408.7969641284711Q1331.8963973573104 404.6247788786958 1342.312669375457 404.6247788786958ZM1501.0827665675874 477.1697142421361L1501.0827665675874 477.1697142421361Q1501.0827665675874 496.58314764925393 1487.0051891261683 507.39677064356954Q1472.899229472166 518.2387758504686 1448.9730242642713 518.2387758504686L1448.9730242642713 518.2387758504686Q1436.7119084281967 518.2387758504686 1426.29563641005 516.3939320325408Q1415.8793643919034 514.549088214613 1408.9257223089448 511.2851337675098L1408.9257223089448 511.2851337675098L1408.9257223089448 493.71654417831985Q1416.276715368073 496.980498625423 1427.2322494253058 499.64842660827253Q1438.1594012699557 502.28797237853854 1449.7961084291928 502.28797237853854L1449.7961084291928 502.28797237853854Q1466.144262877292 502.28797237853854 1474.4318689516754 495.95873897241677Q1482.6910928134757 489.62950556629505 1482.6910928134757 478.7875003593959L1482.6910928134757 478.7875003593959Q1482.6910928134757 471.6351827883525 1479.6258138544572 466.7534422239895Q1476.5605348954386 461.8433194470431 1469.1243951985603 457.6427519846842Q1461.659873289098 453.4705667349089 1448.3769978000178 448.75911944604695L1448.3769978000178 448.75911944604695Q1429.7866485578215 442.00415285117265 1420.2786073423472 432.21228950986324Q1410.7705661268724 422.3920439559703 1410.7705661268724 405.4478630436174L1410.7705661268724 405.4478630436174Q1410.7705661268724 393.78277367179663 1416.7024485568254 385.5235498099965Q1422.634330986778 377.23594373561286 1433.135749642675 372.75155414741903Q1443.6655505111557 368.2387823466416 1457.3741591889889 368.2387823466416L1457.3741591889889 368.2387823466416Q1469.408217324395 368.2387823466416 1479.4271383663727 370.48097714073856Q1489.4460594083503 372.75155414741903 1497.6201366323994 376.41285957069124L1497.6201366323994 376.41285957069124L1491.8869296905318 392.1649875545368Q1484.3372611433192 388.87265089485015 1475.4536286046819 386.63045610075324Q1466.5699960660445 384.3882613066563 1456.9484260002364 384.3882613066563L1456.9484260002364 384.3882613066563Q1443.2681995349867 384.3882613066563 1436.3145574520277 390.2066148862749Q1429.3609153690686 396.0249684658936 1429.3609153690686 405.64653853170194L1429.3609153690686 405.64653853170194Q1429.3609153690686 412.9975315908299 1432.4261943280871 417.9076543677764Q1435.4914732871061 422.81777714472287 1442.4451153700647 426.6777580560796Q1449.3987574530238 430.5661211800199 1461.2341401003455 435.07889298079726L1461.2341401003455 435.07889298079726Q1474.119664613257 439.76195805707573 1483.0032971518945 445.1829606605253Q1491.8869296905318 450.60396326397483 1496.4848481290596 458.1536318111873Q1501.0827665675874 465.7316825709833 1501.0827665675874 477.1697142421361ZM1564.6589227546401 503.5367897322128L1564.6589227546401 503.5367897322128Q1568.7459613666647 503.5367897322128 1573.0316754667742 502.7988522050416Q1577.3173895668833 502.08929689045397 1579.9853175497328 501.26621272553234L1579.9853175497328 501.26621272553234L1579.9853175497328 514.9748214033655Q1577.1187140787988 516.3939320325408 1571.8112403256832 517.3305450477965Q1566.4753843599842 518.2387758504686 1561.5936437956211 518.2387758504686L1561.5936437956211 518.2387758504686Q1552.993833382819 518.2387758504686 1545.7563691740252 515.2870257417841Q1538.4905227526478 512.306893420516 1534.0061331644538 504.95590036138805Q1529.4933613636763 497.60490730226013 1529.4933613636763 484.3220318131795L1529.4933613636763 484.3220318131795L1529.4933613636763 420.5472001380424L1513.968291080499 420.5472001380424L1513.968291080499 411.9757719378237L1529.6920368517613 404.8234543667803L1536.8443544228044 381.5216578357222L1547.487684141619 381.5216578357222L1547.487684141619 406.6682981847082L1579.1622333848113 406.6682981847082L1579.1622333848113 420.5472001380424L1547.487684141619 420.5472001380424L1547.487684141619 483.8962986244269Q1547.487684141619 493.91521966640437 1552.2842780682313 498.7118135930168Q1557.0808719948436 503.5367897322128 1564.6589227546401 503.5367897322128ZM1643.3344160361175 404.8234543667803L1643.3344160361175 404.8234543667803Q1663.3438759074888 404.8234543667803 1672.9654459732974 413.62194026766707Q1682.558633826522 422.3920439559703 1682.558633826522 441.60680187500355L1682.558633826522 441.60680187500355L1682.558633826522 516.1952565444562L1669.474433825526 516.1952565444562L1666.0118038903383 500.6701862612787L1665.1887197254168 500.6701862612787Q1658.0364021543733 509.66734765025 1650.1745292687424 513.9530617503593Q1642.312656383111 518.2387758504686 1628.4053722171934 518.2387758504686L1628.4053722171934 518.2387758504686Q1613.4763283982693 518.2387758504686 1603.68446505696 510.37690296483765Q1593.864219503067 502.51503007920655 1593.864219503067 485.74114244235477L1593.864219503067 485.74114244235477Q1593.864219503067 469.3929879942556 1606.7497440159786 460.5093554556183Q1619.6068863163068 451.62572291698103 1646.399694995136 450.80263875205935L1646.399694995136 450.80263875205935L1664.9900442373323 450.17823007522225L1664.9900442373323 443.65032118101595Q1664.9900442373323 429.97009471576627 1659.0581618073793 424.6342387500672Q1653.1262793774267 419.3267649969517 1642.312656383111 419.3267649969517L1642.312656383111 419.3267649969517Q1633.712845970309 419.3267649969517 1625.9645019350119 421.8811641294672Q1618.1877756871313 424.4355632619827 1611.4328090922572 427.69951770908585L1611.4328090922572 427.69951770908585L1605.9266598510571 414.2179667319207Q1613.0789774221003 410.3296036079804 1622.8992229759933 407.57652898738036Q1632.691086317303 404.8234543667803 1643.3344160361175 404.8234543667803ZM1664.7913687492478 462.6664036119647L1648.6418897892331 463.2624300762183Q1628.206696729109 464.08551424114 1620.344823843478 469.8187211830081Q1612.4545687452633 475.5235459122928 1612.4545687452633 485.9398179304393L1612.4545687452633 485.9398179304393Q1612.4545687452633 495.13565480749514 1618.0742468367976 499.449751120188Q1623.6939249283314 503.7354652202973 1632.4924108292184 503.7354652202973L1632.4924108292184 503.7354652202973Q1646.399694995136 503.7354652202973 1655.5955318721917 496.0722678227508Q1664.7913687492478 488.4090704252043 1664.7913687492478 472.4582669532742L1664.7913687492478 472.4582669532742L1664.7913687492478 462.6664036119647ZM1767.5633605141215 404.6247788786958L1767.5633605141215 404.6247788786958Q1770.62863947314 404.6247788786958 1774.2047982586614 404.93698321711435Q1777.7809570441832 405.2208053429494 1780.4488850270332 405.8452140197865L1780.4488850270332 405.8452140197865L1778.2066902329361 422.3920439559703Q1775.5387622500862 421.79601749171667 1772.3599544407339 421.3702843029641Q1769.2095288439646 420.972933326795 1766.3429253730305 420.972933326795L1766.3429253730305 420.972933326795Q1757.9701726608964 420.972933326795 1750.6191796017683 425.5708517653229Q1743.2398043300573 430.16877020385084 1738.868943592197 438.4279940656509Q1734.4697006417537 446.71560014003455 1734.4697006417537 457.75628083501823L1734.4697006417537 457.75628083501823L1734.4697006417537 516.1952565444562L1716.4753778638114 516.1952565444562L1716.4753778638114 406.6682981847082L1731.2057461946506 406.6682981847082L1733.2492655006631 426.6777580560796L1734.0439674530012 426.6777580560796Q1739.3798234187002 417.7089788796918 1747.7525761308343 411.1526877729021Q1756.1253288429684 404.6247788786958 1767.5633605141215 404.6247788786958Z " fill="#080a52" transform="matrix(0.4914490833842145,0,0,0.49144908338421445,0,82.17072248882808)"/></g></svg>